# 3ds Max Wavefront OBJ Exporter v0.99 - (c)2007 guruware
# File Created: 05.06.2022 17:56:33

mtllib tent_stick.mtl

#
# object tent_stick
#

v  69.1615 -0.0664 -9.5057
v  69.0953 -0.1809 -9.5057
v  68.9941 -0.2659 -9.5057
v  68.8698 -0.3111 -9.5057
v  68.7376 -0.3111 -9.5057
v  68.6133 -0.2658 -9.5057
v  68.5121 -0.1809 -9.5057
v  68.4459 -0.0664 -9.5057
v  68.4230 0.0639 -9.5057
v  68.4459 0.1941 -9.5057
v  68.5121 0.3086 -9.5057
v  68.6133 0.3936 -9.5057
v  68.7376 0.4388 -9.5057
v  68.8698 0.4388 -9.5057
v  68.9941 0.3936 -9.5057
v  69.0953 0.3086 -9.5057
v  69.1615 0.1941 -9.5057
v  69.1844 0.0639 -9.5057
v  69.1615 0.1941 -3.2051
v  69.1844 0.0639 -3.2051
v  69.0953 0.3086 -3.2051
v  68.9941 0.3936 -3.2051
v  68.8698 0.4388 -3.2051
v  68.7376 0.4388 -3.2051
v  68.6133 0.3936 -3.2051
v  68.5121 0.3086 -3.2051
v  68.4459 0.1941 -3.2051
v  68.4230 0.0639 -3.2051
v  68.4459 -0.0664 -3.2051
v  68.5121 -0.1809 -3.2051
v  68.6133 -0.2658 -3.2051
v  68.7376 -0.3111 -3.2051
v  68.8698 -0.3111 -3.2051
v  68.9941 -0.2658 -3.2051
v  69.0953 -0.1809 -3.2051
v  69.1615 -0.0664 -3.2051
v  69.1615 0.1941 3.0954
v  69.1844 0.0639 3.0954
v  69.0953 0.3086 3.0954
v  68.9941 0.3936 3.0954
v  68.8698 0.4388 3.0954
v  68.7376 0.4388 3.0954
v  68.6133 0.3936 3.0954
v  68.5121 0.3086 3.0954
v  68.4459 0.1941 3.0954
v  68.4230 0.0639 3.0954
v  68.4459 -0.0664 3.0954
v  68.5121 -0.1809 3.0954
v  68.6133 -0.2658 3.0954
v  68.7376 -0.3111 3.0954
v  68.8698 -0.3111 3.0954
v  68.9941 -0.2658 3.0954
v  69.0953 -0.1809 3.0954
v  69.1615 -0.0664 3.0954
v  69.1615 0.1941 9.3959
v  69.1844 0.0639 9.3959
v  69.0953 0.3086 9.3959
v  68.9941 0.3936 9.3959
v  68.8698 0.4388 9.3959
v  68.7376 0.4388 9.3959
v  68.6133 0.3936 9.3959
v  68.5121 0.3086 9.3959
v  68.4459 0.1941 9.3959
v  68.4230 0.0639 9.3959
v  68.4459 -0.0664 9.3959
v  68.5121 -0.1809 9.3959
v  68.6133 -0.2658 9.3959
v  68.7376 -0.3111 9.3959
v  68.8698 -0.3111 9.3959
v  68.9941 -0.2658 9.3959
v  69.0953 -0.1809 9.3959
v  69.1615 -0.0664 9.3959
v  69.1615 0.1941 15.6964
v  69.1844 0.0639 15.6964
v  69.0953 0.3086 15.6964
v  68.9941 0.3936 15.6964
v  68.8698 0.4388 15.6964
v  68.7376 0.4388 15.6964
v  68.6133 0.3936 15.6964
v  68.5121 0.3086 15.6964
v  68.4459 0.1941 15.6964
v  68.4230 0.0639 15.6964
v  68.4459 -0.0664 15.6964
v  68.5121 -0.1809 15.6964
v  68.6133 -0.2658 15.6964
v  68.7376 -0.3111 15.6964
v  68.8698 -0.3111 15.6964
v  68.9941 -0.2658 15.6964
v  69.0953 -0.1809 15.6964
v  69.1615 -0.0664 15.6964
v  69.1615 0.1941 19.6030
v  69.1844 0.0639 19.6030
v  69.0953 0.3086 19.6030
v  68.9941 0.3936 19.6030
v  68.8698 0.4388 19.6030
v  68.7376 0.4388 19.6030
v  68.6133 0.3936 19.6030
v  68.5121 0.3086 19.6030
v  68.4459 0.1941 19.6030
v  68.4230 0.0639 19.6030
v  68.4459 -0.0663 19.6030
v  68.5121 -0.1809 19.6030
v  68.6133 -0.2658 19.6030
v  68.7376 -0.3111 19.6030
v  68.8698 -0.3111 19.6030
v  68.9941 -0.2658 19.6030
v  69.0953 -0.1809 19.6030
v  69.1615 -0.0664 19.6030
# 108 vertices

vn 0.6975 -0.2539 -0.6701
vn 0.5687 -0.4772 -0.6700
vn 0.3712 -0.6429 -0.6700
vn 0.1289 -0.7311 -0.6700
vn -0.1289 -0.7311 -0.6700
vn -0.3711 -0.6429 -0.6701
vn -0.5686 -0.4771 -0.6701
vn -0.6976 -0.2539 -0.6700
vn -0.7423 -0.0000 -0.6700
vn -0.6975 0.2539 -0.6701
vn -0.5686 0.4771 -0.6701
vn -0.3712 0.6429 -0.6700
vn -0.1289 0.7311 -0.6700
vn 0.1289 0.7311 -0.6700
vn 0.3712 0.6429 -0.6700
vn 0.5686 0.4771 -0.6701
vn 0.6975 0.2539 -0.6701
vn 0.7423 -0.0000 -0.6701
vn 0.9397 0.3420 -0.0000
vn 1.0000 -0.0000 0.0000
vn 0.7660 0.6428 -0.0000
vn 0.5000 0.8660 -0.0000
vn 0.1736 0.9848 -0.0000
vn -0.1736 0.9848 -0.0000
vn -0.5000 0.8660 -0.0000
vn -0.7660 0.6428 -0.0000
vn -0.9397 0.3420 -0.0000
vn -1.0000 0.0000 -0.0000
vn -0.9397 -0.3420 0.0000
vn -0.7661 -0.6428 0.0000
vn -0.5000 -0.8660 0.0000
vn -0.1736 -0.9848 0.0000
vn 0.1736 -0.9848 0.0000
vn 0.5000 -0.8660 0.0000
vn 0.7660 -0.6428 0.0000
vn 0.9397 -0.3420 0.0000
vn -0.7660 -0.6428 0.0000
vn 0.6976 0.2539 0.6700
vn 0.7423 0.0000 0.6700
vn 0.5686 0.4772 0.6701
vn 0.3712 0.6429 0.6700
vn 0.1289 0.7311 0.6700
vn -0.1289 0.7311 0.6700
vn -0.3712 0.6429 0.6700
vn -0.5686 0.4772 0.6701
vn -0.6976 0.2539 0.6700
vn -0.7423 0.0000 0.6700
vn -0.6976 -0.2539 0.6700
vn -0.5686 -0.4771 0.6701
vn -0.3712 -0.6429 0.6700
vn -0.1289 -0.7311 0.6700
vn 0.1289 -0.7311 0.6700
vn 0.3712 -0.6429 0.6700
vn 0.5687 -0.4772 0.6700
vn 0.6976 -0.2539 0.6700
# 55 vertex normals

vt 0.3400 0.0000 0.0000
vt 0.1953 0.0000 -0.3473
vt 0.0874 0.0000 -0.6527
vt 0.0292 0.0000 -0.8794
vt 0.0278 0.0000 -1.0000
vt 0.0833 0.0000 -1.0000
vt 0.1891 0.0000 -0.8794
vt 0.3325 0.0000 -0.6527
vt 0.4960 0.0000 -0.3473
vt 0.6600 0.0000 0.0000
vt 0.8047 0.0000 0.3473
vt 0.9126 0.0000 0.6527
vt 0.9708 0.0000 0.8794
vt 0.9722 0.0000 1.0000
vt 0.9167 0.0000 1.0000
vt 0.8611 0.0000 1.0000
vt 0.8056 0.0000 1.0000
vt 0.7500 0.0000 1.0000
vt 0.8056 0.2000 1.0000
vt 0.7500 0.2000 1.0000
vt 0.8611 0.2000 1.0000
vt 0.9167 0.2000 1.0000
vt 0.9722 0.2000 1.0000
vt -0.0278 0.0000 1.0000
vt 0.0278 0.0000 1.0000
vt 0.0278 0.2000 1.0000
vt -0.0278 0.2000 1.0000
vt 0.0833 0.0000 1.0000
vt 0.0833 0.2000 1.0000
vt 0.1389 0.0000 1.0000
vt 0.1389 0.2000 1.0000
vt 0.1944 0.0000 1.0000
vt 0.1944 0.2000 1.0000
vt 0.2500 0.0000 1.0000
vt 0.2500 0.2000 1.0000
vt 0.3056 0.0000 1.0000
vt 0.3056 0.2000 1.0000
vt 0.3611 0.0000 1.0000
vt 0.3611 0.2000 1.0000
vt 0.4167 0.0000 1.0000
vt 0.4167 0.2000 1.0000
vt 0.4722 0.0000 1.0000
vt 0.4722 0.2000 1.0000
vt 0.5278 0.0000 1.0000
vt 0.5278 0.2000 1.0000
vt 0.5833 0.0000 1.0000
vt 0.5833 0.2000 1.0000
vt 0.6389 0.0000 1.0000
vt 0.6389 0.2000 1.0000
vt 0.6944 0.0000 1.0000
vt 0.6944 0.2000 1.0000
vt 0.8056 0.4000 1.0000
vt 0.7500 0.4000 1.0000
vt 0.8611 0.4000 1.0000
vt 0.9167 0.4000 1.0000
vt 0.9722 0.4000 1.0000
vt 0.0278 0.4000 1.0000
vt -0.0278 0.4000 1.0000
vt 0.0833 0.4000 1.0000
vt 0.1389 0.4000 1.0000
vt 0.1944 0.4000 1.0000
vt 0.2500 0.4000 1.0000
vt 0.3056 0.4000 1.0000
vt 0.3611 0.4000 1.0000
vt 0.4167 0.4000 1.0000
vt 0.4722 0.4000 1.0000
vt 0.5278 0.4000 1.0000
vt 0.5833 0.4000 1.0000
vt 0.6389 0.4000 1.0000
vt 0.6944 0.4000 1.0000
vt 0.8056 0.6000 1.0000
vt 0.7500 0.6000 1.0000
vt 0.8611 0.6000 1.0000
vt 0.9167 0.6000 1.0000
vt 0.9722 0.6000 1.0000
vt 0.0278 0.6000 1.0000
vt -0.0278 0.6000 1.0000
vt 0.0833 0.6000 1.0000
vt 0.1389 0.6000 1.0000
vt 0.1944 0.6000 1.0000
vt 0.2500 0.6000 1.0000
vt 0.3056 0.6000 1.0000
vt 0.3611 0.6000 1.0000
vt 0.4167 0.6000 1.0000
vt 0.4722 0.6000 1.0000
vt 0.5278 0.6000 1.0000
vt 0.5833 0.6000 1.0000
vt 0.6389 0.6000 1.0000
vt 0.6944 0.6000 1.0000
vt 0.8056 0.8000 1.0000
vt 0.7500 0.8000 1.0000
vt 0.8611 0.8000 1.0000
vt 0.9167 0.8000 1.0000
vt 0.9722 0.8000 1.0000
vt 0.0278 0.8000 1.0000
vt -0.0278 0.8000 1.0000
vt 0.0833 0.8000 1.0000
vt 0.1389 0.8000 1.0000
vt 0.1944 0.8000 1.0000
vt 0.2500 0.8000 1.0000
vt 0.3056 0.8000 1.0000
vt 0.3611 0.8000 1.0000
vt 0.4167 0.8000 1.0000
vt 0.4722 0.8000 1.0000
vt 0.5278 0.8000 1.0000
vt 0.5833 0.8000 1.0000
vt 0.6389 0.8000 1.0000
vt 0.6944 0.8000 1.0000
vt 0.8056 1.0000 1.0000
vt 0.7500 1.0000 1.0000
vt 0.8611 1.0000 1.0000
vt 0.9167 1.0000 1.0000
vt 0.9722 1.0000 1.0000
vt 0.0278 1.0000 1.0000
vt -0.0278 1.0000 1.0000
vt 0.0833 1.0000 1.0000
vt 0.1389 1.0000 1.0000
vt 0.1944 1.0000 1.0000
vt 0.2500 1.0000 1.0000
vt 0.3056 1.0000 1.0000
vt 0.3611 1.0000 1.0000
vt 0.4167 1.0000 1.0000
vt 0.4722 1.0000 1.0000
vt 0.5278 1.0000 1.0000
vt 0.5833 1.0000 1.0000
vt 0.6389 1.0000 1.0000
vt 0.6944 1.0000 1.0000
vt 0.9708 1.0000 0.8794
vt 0.9126 1.0000 0.6527
vt 0.8047 1.0000 0.3473
vt 0.6600 1.0000 0.0000
vt 0.4960 1.0000 -0.3473
vt 0.3325 1.0000 -0.6527
vt 0.1891 1.0000 -0.8794
vt 0.0833 1.0000 -1.0000
vt 0.0278 1.0000 -1.0000
vt 0.0292 1.0000 -0.8794
vt 0.0874 1.0000 -0.6527
vt 0.1953 1.0000 -0.3473
# 139 texture coords

o tent_stick
g tent_stick
usemtl wire_006135113
s 1
f 1/1/1 2/2/2 3/3/3 4/4/4 5/5/5 6/6/6 7/7/7 8/8/8 9/9/9 10/10/10 11/11/11 12/12/12 13/13/13 14/14/14 15/15/15 16/16/16 17/17/17 18/18/18 
s 8
f 18/18/18 17/17/17 19/19/19 20/20/20 
f 17/17/17 16/16/16 21/21/21 19/19/19 
f 16/16/16 15/15/15 22/22/22 21/21/21 
f 15/15/15 14/14/14 23/23/23 22/22/22 
f 14/24/14 13/25/13 24/26/24 23/27/23 
f 13/25/13 12/28/12 25/29/25 24/26/24 
f 12/28/12 11/30/11 26/31/26 25/29/25 
f 11/30/11 10/32/10 27/33/27 26/31/26 
f 10/32/10 9/34/9 28/35/28 27/33/27 
f 9/34/9 8/36/8 29/37/29 28/35/28 
f 8/36/8 7/38/7 30/39/30 29/37/29 
f 7/38/7 6/40/6 31/41/31 30/39/30 
f 6/40/6 5/42/5 32/43/32 31/41/31 
f 5/42/5 4/44/4 33/45/33 32/43/32 
f 4/44/4 3/46/3 34/47/34 33/45/33 
f 3/46/3 2/48/2 35/49/35 34/47/34 
f 2/48/2 1/50/1 36/51/36 35/49/35 
f 1/50/1 18/18/18 20/20/20 36/51/36 
f 20/20/20 19/19/19 37/52/19 38/53/20 
f 19/19/19 21/21/21 39/54/21 37/52/19 
f 21/21/21 22/22/22 40/55/22 39/54/21 
f 22/22/22 23/23/23 41/56/23 40/55/22 
f 23/27/23 24/26/24 42/57/24 41/58/23 
f 24/26/24 25/29/25 43/59/25 42/57/24 
f 25/29/25 26/31/26 44/60/26 43/59/25 
f 26/31/26 27/33/27 45/61/27 44/60/26 
f 27/33/27 28/35/28 46/62/28 45/61/27 
f 28/35/28 29/37/29 47/63/29 46/62/28 
f 29/37/29 30/39/30 48/64/30 47/63/29 
f 30/39/30 31/41/31 49/65/31 48/64/30 
f 31/41/31 32/43/32 50/66/32 49/65/31 
f 32/43/32 33/45/33 51/67/33 50/66/32 
f 33/45/33 34/47/34 52/68/34 51/67/33 
f 34/47/34 35/49/35 53/69/35 52/68/34 
f 35/49/35 36/51/36 54/70/36 53/69/35 
f 36/51/36 20/20/20 38/53/20 54/70/36 
f 38/53/20 37/52/19 55/71/19 56/72/20 
f 37/52/19 39/54/21 57/73/21 55/71/19 
f 39/54/21 40/55/22 58/74/22 57/73/21 
f 40/55/22 41/56/23 59/75/23 58/74/22 
f 41/58/23 42/57/24 60/76/24 59/77/23 
f 42/57/24 43/59/25 61/78/25 60/76/24 
f 43/59/25 44/60/26 62/79/26 61/78/25 
f 44/60/26 45/61/27 63/80/27 62/79/26 
f 45/61/27 46/62/28 64/81/28 63/80/27 
f 46/62/28 47/63/29 65/82/29 64/81/28 
f 47/63/29 48/64/30 66/83/30 65/82/29 
f 48/64/30 49/65/31 67/84/31 66/83/30 
f 49/65/31 50/66/32 68/85/32 67/84/31 
f 50/66/32 51/67/33 69/86/33 68/85/32 
f 51/67/33 52/68/34 70/87/34 69/86/33 
f 52/68/34 53/69/35 71/88/35 70/87/34 
f 53/69/35 54/70/36 72/89/36 71/88/35 
f 54/70/36 38/53/20 56/72/20 72/89/36 
f 56/72/20 55/71/19 73/90/19 74/91/20 
f 55/71/19 57/73/21 75/92/21 73/90/19 
f 57/73/21 58/74/22 76/93/22 75/92/21 
f 58/74/22 59/75/23 77/94/23 76/93/22 
f 59/77/23 60/76/24 78/95/24 77/96/23 
f 60/76/24 61/78/25 79/97/25 78/95/24 
f 61/78/25 62/79/26 80/98/26 79/97/25 
f 62/79/26 63/80/27 81/99/27 80/98/26 
f 63/80/27 64/81/28 82/100/28 81/99/27 
f 64/81/28 65/82/29 83/101/29 82/100/28 
f 65/82/29 66/83/30 84/102/37 83/101/29 
f 66/83/30 67/84/31 85/103/31 84/102/37 
f 67/84/31 68/85/32 86/104/32 85/103/31 
f 68/85/32 69/86/33 87/105/33 86/104/32 
f 69/86/33 70/87/34 88/106/34 87/105/33 
f 70/87/34 71/88/35 89/107/35 88/106/34 
f 71/88/35 72/89/36 90/108/36 89/107/35 
f 72/89/36 56/72/20 74/91/20 90/108/36 
f 74/91/20 73/90/19 91/109/38 92/110/39 
f 73/90/19 75/92/21 93/111/40 91/109/38 
f 75/92/21 76/93/22 94/112/41 93/111/40 
f 76/93/22 77/94/23 95/113/42 94/112/41 
f 77/96/23 78/95/24 96/114/43 95/115/42 
f 78/95/24 79/97/25 97/116/44 96/114/43 
f 79/97/25 80/98/26 98/117/45 97/116/44 
f 80/98/26 81/99/27 99/118/46 98/117/45 
f 81/99/27 82/100/28 100/119/47 99/118/46 
f 82/100/28 83/101/29 101/120/48 100/119/47 
f 83/101/29 84/102/37 102/121/49 101/120/48 
f 84/102/37 85/103/31 103/122/50 102/121/49 
f 85/103/31 86/104/32 104/123/51 103/122/50 
f 86/104/32 87/105/33 105/124/52 104/123/51 
f 87/105/33 88/106/34 106/125/53 105/124/52 
f 88/106/34 89/107/35 107/126/54 106/125/53 
f 89/107/35 90/108/36 108/127/55 107/126/54 
f 90/108/36 74/91/20 92/110/39 108/127/55 
s 1
f 108/127/55 92/110/39 91/109/38 93/111/40 94/112/41 95/113/42 96/128/43 97/129/44 98/130/45 99/131/46 100/132/47 101/133/48 102/134/49 103/135/50 104/136/51 105/137/52 106/138/53 107/139/54 
# 92 polygons

